<svg version="1.1" viewBox="0 0 96 96" xmlns="http://www.w3.org/2000/svg" xmlns:xlink="http://www.w3.org/1999/xlink" id="Icons_SecurityCamera" overflow="hidden"><path d=" M 40.6 44 C 38.4 44 36.6 42.2 36.6 40 C 36.6 37.8 38.4 36 40.6 36 C 42.8 36 44.6 37.8 44.6 40 C 44.6 42.2 42.8 44 40.6 44 Z M 82.2 41.5 L 28.7 19.3 L 19.5 41.5 L 37.6 49.1 L 37.6 53 C 37.6 57.4 34 61 29.6 61 L 14.6 61 L 14.6 14 L 8.6 14 L 8.6 82 L 14.6 82 L 14.6 67 L 29.6 67 C 37.3 67 43.6 60.7 43.6 53 L 43.6 51.5 L 60.6 58.5 L 82.2 41.5 Z" stroke="none" stroke-width="1" stroke-linecap="butt" fill="#FF0F3E" fill-opacity="1"/><path d=" M 80.1 48.3 L 71.2 55.3 L 78.5 58.3 L 87.4 51.3 Z" stroke="none" stroke-width="1" stroke-linecap="butt" fill="#FF0F3E" fill-opacity="1"/></svg>